<svg width="512" height="512" viewBox="0 0 512 512" fill="none" xmlns="http://www.w3.org/2000/svg">
  <rect width="512" height="512" rx="112" fill="#09090B"/>
  <path d="M136 160C136 146.745 146.745 136 160 136H352C365.255 136 376 146.745 376 160V193C358.327 193 344 207.327 344 225C344 242.673 358.327 257 376 257V352C376 365.255 365.255 376 352 376H160C146.745 376 136 365.255 136 352V257C153.673 257 168 242.673 168 225C168 207.327 153.673 193 136 193V160Z" fill="#FAFAFA"/>
  <path d="M188 318L224 258L258 286L324 196" stroke="#09090B" stroke-width="28" stroke-linecap="round" stroke-linejoin="round"/>
  <path d="M188 318L224 258L258 286L324 196" stroke="#14B8A6" stroke-width="14" stroke-linecap="round" stroke-linejoin="round"/>
  <circle cx="188" cy="318" r="18" fill="#F5C542"/>
  <circle cx="224" cy="258" r="18" fill="#F5C542"/>
  <circle cx="258" cy="286" r="18" fill="#F5C542"/>
  <circle cx="324" cy="196" r="18" fill="#F5C542"/>
  <path d="M205 352H307" stroke="#09090B" stroke-width="18" stroke-linecap="round"/>
  <path d="M176 176H214" stroke="#09090B" stroke-width="18" stroke-linecap="round"/>
  <path d="M246 176H336" stroke="#09090B" stroke-width="18" stroke-linecap="round"/>
</svg>
